<!-- moon.svg -->
<svg width="24" height="24" viewBox="0 0 24 24" fill="none" xmlns="http://www.w3.org/2000/svg">
    <path d="M12 2C8.13401 2 5 5.13401 5 9C5 12.1455 6.47868 14.9447 8.83756 16.5755C8.52639 17.8879 8.68091 19.2725 9.28288 20.4715C9.9849 21.8831 11.3573 22.8936 12.9497 22.9451C15.6711 23.036 18.2635 21.0671 19.4841 18.2101C20.7444 15.2935 19.0599 12.7364 16.4289 12.1476C14.3068 11.5644 12.4685 9.79076 12.1125 7.70744C11.5813 6.09087 11.6376 4.49077 12.1859 2.96112C12.0668 2.98639 12.0279 2.99968 12 3C12 3.00007 12 2.99981 12 2Z" fill="#B0BEC5"/>
</svg>
